<svg width="192" height="192" viewBox="0 0 12 16" fill="none" xmlns="http://www.w3.org/2000/svg">
<path d="M8.36719 9.44531C8.36719 9.17969 8.29688 8.94141 8.15625 8.73047C8.01562 8.51953 7.75 8.32812 7.35938 8.15625C6.97656 7.97656 6.41406 7.80859 5.67188 7.65234C5.01562 7.51172 4.41016 7.33594 3.85547 7.125C3.30078 6.91406 2.82422 6.66016 2.42578 6.36328C2.02734 6.05859 1.71484 5.70312 1.48828 5.29688C1.26953 4.88281 1.16016 4.40625 1.16016 3.86719C1.16016 3.34375 1.27344 2.85156 1.5 2.39062C1.72656 1.92188 2.05469 1.51172 2.48438 1.16016C2.91406 0.800781 3.4375 0.519531 4.05469 0.316406C4.67188 0.105469 5.36719 0 6.14062 0C7.21875 0 8.14453 0.175781 8.91797 0.527344C9.69922 0.878906 10.2969 1.36328 10.7109 1.98047C11.125 2.58984 11.332 3.27734 11.332 4.04297H8.23828C8.23828 3.70703 8.16016 3.40234 8.00391 3.12891C7.85547 2.85547 7.625 2.63672 7.3125 2.47266C7 2.30078 6.60547 2.21484 6.12891 2.21484C5.69922 2.21484 5.33594 2.28516 5.03906 2.42578C4.75 2.56641 4.53125 2.75 4.38281 2.97656C4.23438 3.20312 4.16016 3.45312 4.16016 3.72656C4.16016 3.92969 4.19922 4.11328 4.27734 4.27734C4.36328 4.43359 4.5 4.57812 4.6875 4.71094C4.875 4.84375 5.12891 4.96484 5.44922 5.07422C5.77734 5.18359 6.17969 5.28906 6.65625 5.39062C7.60156 5.57812 8.42578 5.82812 9.12891 6.14062C9.83984 6.44531 10.3945 6.85156 10.793 7.35938C11.1914 7.86719 11.3906 8.51562 11.3906 9.30469C11.3906 9.86719 11.2695 10.3828 11.0273 10.8516C10.7852 11.3125 10.4336 11.7148 9.97266 12.0586C9.51172 12.4023 8.96094 12.6719 8.32031 12.8672C7.67969 13.0547 6.95703 13.1484 6.15234 13.1484C4.98828 13.1484 4.00391 12.9414 3.19922 12.5273C2.39453 12.1055 1.78516 11.5742 1.37109 10.9336C0.957031 10.2852 0.75 9.61328 0.75 8.91797H3.71484C3.73828 9.41016 3.87109 9.80469 4.11328 10.1016C4.35547 10.3984 4.66016 10.6133 5.02734 10.7461C5.40234 10.8711 5.79688 10.9336 6.21094 10.9336C6.67969 10.9336 7.07422 10.8711 7.39453 10.7461C7.71484 10.6133 7.95703 10.4375 8.12109 10.2188C8.28516 9.99219 8.36719 9.73438 8.36719 9.44531Z" fill="#2D7FF9"/>
<path d="M12 15.4141C12 15.6902 9.31371 15.9141 6 15.9141C2.68629 15.9141 0 15.6902 0 15.4141C0 15.1379 2.68629 14.9141 6 14.9141C9.31371 14.9141 12 15.1379 12 15.4141Z" fill="#2C2C2C"/>
</svg>
